<?xml version="1.0" standalone="no"?>
<!DOCTYPE svg PUBLIC "-//W3C//DTD SVG 20010904//EN"
 "http://www.w3.org/TR/2001/REC-SVG-20010904/DTD/svg10.dtd">
<svg version="1.0" xmlns="http://www.w3.org/2000/svg"
 width="512.000000pt" height="512.000000pt" viewBox="0 0 512.000000 512.000000"
 preserveAspectRatio="xMidYMid meet">
<metadata>
Created by potrace 1.16, written by Peter Selinger 2001-2019
</metadata>
<g transform="translate(0.000000,512.000000) scale(0.100000,-0.100000)"
fill="#28a745" stroke="none">
<path d="M2305 5113 c-1107 -119 -2003 -913 -2249 -1993 -43 -191 -51 -280
-51 -560 0 -295 9 -381 62 -600 221 -916 938 -1648 1840 -1881 246 -63 340
-73 653 -73 313 0 407 10 653 73 902 233 1619 965 1840 1881 53 219 62 305 62
600 0 331 -16 451 -96 727 -245 849 -950 1533 -1806 1754 -227 58 -334 71
-613 74 -140 2 -273 1 -295 -2z m542 -298 c757 -99 1419 -574 1754 -1260 157
-323 229 -635 229 -995 0 -360 -72 -672 -229 -995 -335 -686 -997 -1161 -1754
-1260 -152 -19 -422 -19 -574 0 -757 99 -1419 574 -1754 1260 -157 323 -229
635 -229 995 0 360 72 672 229 995 223 455 591 823 1046 1046 223 108 460 181
695 213 144 19 440 20 587 1z"/>
<path d="M2525 4359 c-31 -16 -1355 -1744 -1361 -1778 -5 -23 -1 -35 19 -55
15 -14 37 -26 51 -26 14 0 219 77 456 170 237 94 433 170 435 170 3 0 5 -452
5 -1004 0 -674 3 -1013 10 -1033 6 -17 22 -35 36 -42 35 -16 733 -16 768 0 14
7 30 25 36 42 7 20 10 359 10 1033 0 552 2 1004 5 1004 2 0 198 -76 435 -170
237 -93 442 -170 456 -170 14 0 36 12 51 26 20 20 24 32 19 55 -7 37 -1331
1763 -1364 1778 -27 13 -40 13 -67 0z"/>
</g>
</svg>
