<?xml version="1.0" standalone="no"?>
<!DOCTYPE svg PUBLIC "-//W3C//DTD SVG 20010904//EN"
 "http://www.w3.org/TR/2001/REC-SVG-20010904/DTD/svg10.dtd">
<svg version="1.0" xmlns="http://www.w3.org/2000/svg"
 width="545.000000pt" height="458.000000pt" viewBox="0 0 545.000000 458.000000"
 preserveAspectRatio="xMidYMid meet">

<g transform="translate(0.000000,458.000000) scale(0.100000,-0.100000)"
fill="#D00000" stroke="none">
<path d="M1653 3722 c-203 -154 -358 -289 -524 -459 -478 -487 -658 -904 -544
-1260 14 -46 29 -83 33 -83 4 0 38 51 77 113 38 61 302 489 587 951 286 461
518 840 516 842 -2 1 -67 -45 -145 -104z" fill="#00831D"/>
<path d="M2610 3169 c-326 -40 -602 -213 -718 -451 -54 -110 -66 -172 -59
-299 6 -126 30 -201 96 -302 144 -218 412 -363 714 -386 604 -47 1093 368 992
843 -59 279 -325 506 -680 580 -94 20 -253 27 -345 15z"  fill="#D00000"/>
<path d="M312 1408 c-219 -357 -299 -494 -290 -500 7 -4 53 -8 103 -8 50 0
184 -5 300 -10 116 -6 442 -19 725 -30 617 -23 709 -27 1000 -40 254 -11 577
-23 1245 -45 253 -8 588 -20 745 -25 489 -18 1300 -25 1300 -12 0 7 -3 12 -6
12 -3 0 -78 9 -167 20 -196 23 -592 57 -1317 110 -578 43 -756 59 -1018 91
-917 111 -1561 294 -1957 557 -119 78 -265 221 -319 310 -20 34 -38 62 -39 62
-1 0 -138 -222 -305 -492z" fill="#00831D"/>
</g>
</svg>
